<svg width="16" height="16" fill="#f7a600" xmlns="http://www.w3.org/2000/svg"><path d="M5.62088 7.73082H2.53244C1.67666 7.73082 0.98291 7.03707 0.98291 6.18129V3.43441C0.98291 2.39004 1.82963 1.54332 2.874 1.54332H5.62088C6.47666 1.54332 7.17041 2.23707 7.17041 3.09285V6.18129C7.17041 7.03707 6.47666 7.73082 5.62088 7.73082ZM5.62088 14.9927H2.53244C1.67666 14.9927 0.98291 14.2989 0.98291 13.4432V10.6963C0.98291 9.65191 1.82963 8.8052 2.874 8.8052H5.62088C6.47666 8.8052 7.17041 9.49894 7.17041 10.3547V13.4432C7.17041 14.2989 6.47666 14.9927 5.62088 14.9927ZM12.8938 14.9927H9.80556C8.94978 14.9927 8.25603 14.2989 8.25603 13.4432V10.6963C8.25603 9.65191 9.10275 8.8052 10.1471 8.8052H12.894C13.7498 8.8052 14.4435 9.49894 14.4435 10.3547V13.4432C14.4434 14.2989 13.7496 14.9927 12.8938 14.9927ZM10.254 7.80582L8.11025 5.66207C7.5051 5.05691 7.5051 4.07582 8.11025 3.47066L10.0124 1.56848C10.7509 0.830039 11.9484 0.830039 12.6868 1.56848L14.589 3.47066C15.1942 4.07582 15.1942 5.05691 14.589 5.66207L12.4454 7.80582C11.8403 8.41082 10.8592 8.41082 10.254 7.80582Z" fill="current"/></svg>