<svg width="24" height="24" fill="none" xmlns="http://www.w3.org/2000/svg"><path fill-rule="evenodd" clip-rule="evenodd" d="M9 6.5C9.55228 6.5 10 6.94772 10 7.5V15.5C10 16.0523 9.55228 16.5 9 16.5C8.44772 16.5 8 16.0523 8 15.5V7.5C8 6.94772 8.44772 6.5 9 6.5Z" fill="#F7A600"/><path d="M10.4651 17.4339L10.3743 16.9969L17.668 20.5057C19.6459 21.4572 22 20.0807 22 17.9179V4.89417C22 2.73137 19.6459 1.3549 17.668 2.30637L8.76535 6.58915H4.99562C3.35015 6.58915 2 7.8749 2 9.48057V13.3315C2 14.4619 2.66916 15.4337 3.63943 15.91L4.65315 19.8114C4.98877 21.103 6.19084 21.9993 7.55878 21.9993H7.84594C9.82415 21.9993 11.2779 20.1711 10.7256 18.3111L10.4651 17.4339ZM6.5814 19.3384L5.77187 16.2229H8.18447L8.52374 17.8551C8.5291 17.8808 8.53554 17.9064 8.54303 17.9316L8.81479 18.8467C8.99299 19.4468 8.52691 20.0674 7.84594 20.0674H7.55878C7.0901 20.0674 6.69124 19.7611 6.5814 19.3384ZM9.43948 14.3914C9.3817 14.3636 9.32151 14.3414 9.2598 14.3251C9.24401 14.3209 9.22808 14.3171 9.21203 14.3136C9.14272 14.2988 9.07108 14.291 8.99812 14.291H4.99562C4.43058 14.291 3.98874 13.8526 3.98874 13.3315V9.48057C3.98874 8.95943 4.43058 8.52106 4.99562 8.52106H8.99812C9.15095 8.52106 9.30203 8.48684 9.43948 8.42072L18.5507 4.03759C19.2342 3.70881 20.0113 4.19426 20.0113 4.89417V17.9179C20.0113 18.6178 19.2342 19.1033 18.5507 18.7745L9.43948 14.3914Z" fill="#121214"/></svg>