<svg width="20" height="20" fill="none" xmlns="http://www.w3.org/2000/svg"><path fill-rule="evenodd" clip-rule="evenodd" d="M12.5247 15.9443C12.0944 16.1481 11.6328 16.3021 11.149 16.4062C11.3243 16.2467 11.4755 16.0568 11.5934 15.8447C11.7759 15.5164 11.8817 15.1356 11.8817 14.7289C11.8817 14.2743 11.7507 13.8363 11.5037 13.4638L9.76512 10.6799L8.0265 13.4638C7.77957 13.8363 7.64854 14.2734 7.64854 14.7289C7.64854 15.1356 7.75336 15.5164 7.9368 15.8447C8.05472 16.0568 8.20591 16.2458 8.38128 16.4062C7.8985 16.3021 7.43688 16.1471 7.00651 15.9443C5.07438 15.0305 3.75 13.1909 3.75 11.0737C3.75 8.58122 5.26789 7.31793 7.74933 4.87065C9.90018 2.74888 9.76008 1.10199 9.7621 1.09646C9.73992 1.06787 9.9536 1.26889 10.1673 1.55106C10.137 1.51048 11.795 3.36392 12.0823 5.51613C12.2839 7.02655 11.8807 8.19025 11.8807 8.19025C11.8807 8.19025 12.8664 7.90716 13.2061 6.6909C13.2635 6.48619 13.2877 6.20402 13.3038 6.11181C13.3038 6.11181 13.8552 6.71579 14.598 7.79098C15.3408 8.86708 15.7802 9.9524 15.7802 11.0728C15.7812 13.1909 14.4569 15.0305 12.5247 15.9443Z" fill="url(#paint0_linear_9424_80237)"/><defs><linearGradient id="paint0_linear_9424_80237" x1="3.75" y1="2.37" x2="17.03" y2="3.674" gradientUnits="userSpaceOnUse"><stop stop-color="#FFD748"/><stop offset="1" stop-color="#F7A600"/></linearGradient></defs></svg>